<svg width="33" height="32" viewBox="0 0 33 32" fill="none" xmlns="http://www.w3.org/2000/svg" class="fight-icon">
    <g id="8679756_sword_fill_icon 1" clip-path="url(#clip0_264_1645)">
        <g id="Group">
            <path id="Vector"
                d="M4.3999 4L9.1279 4.004L24.8839 19.7613L26.0635 18.5826C26.454 18.1923 27.087 18.1924 27.4774 18.5829L27.9489 19.0544C28.3394 19.4448 28.3395 20.0779 27.9491 20.4684L25.3572 23.0613L28.421 26.1262C28.8114 26.5168 28.8114 27.1498 28.4209 27.5403L27.9497 28.0116C27.5592 28.4021 26.926 28.4021 26.5355 28.0116L23.4706 24.9467L20.8777 27.5396C20.4872 27.9301 19.854 27.9301 19.4635 27.5396L18.2852 26.3613L20.1706 24.4747L4.4039 8.708L4.3999 4Z"
                fill="currentColor" />
        </g>
        <path id="Vector_2"
            d="M12.7383 22.2275L13.0986 22.5889L11.9209 23.7676L11.2139 24.4746L13.1006 26.3613L12.6289 26.832L9.3291 23.5322L8.62207 24.2393L5.55762 27.3047L5.08594 26.833L8.15137 23.7666L8.8584 23.0596L8.15039 22.3525L5.55859 19.7607L6.0293 19.29L7.20801 20.4678L7.91504 21.1738L8.62207 20.4668L9.79883 19.2881L12.7383 22.2275ZM27.3994 5.00293L27.4014 8.28711L22.998 12.6895L19.6982 9.38965L24.0889 5L27.3994 5.00293Z"
            stroke="currentColor" stroke-width="2" />
    </g>
    <defs>
        <clipPath id="clip0_264_1645">
            <rect width="32" height="32" fill="white" transform="translate(0.399902)" />
        </clipPath>
    </defs>
</svg>