<svg width="33" height="32" viewBox="0 0 33 32" fill="none" xmlns="http://www.w3.org/2000/svg">
<path d="M3.83301 14.5845C3.83301 12.9523 4.58045 11.4099 5.86157 10.3985L13.1949 4.60903C15.1326 3.0793 17.8668 3.07931 19.8044 4.60903L27.1378 10.3985C28.4189 11.4099 29.1663 12.9523 29.1663 14.5845V23.3333C29.1663 26.2789 26.7785 28.6667 23.833 28.6667H21.833C21.0966 28.6667 20.4997 28.0697 20.4997 27.3333V23.3333C20.4997 21.8606 19.3058 20.6667 17.833 20.6667H15.1663C13.6936 20.6667 12.4997 21.8606 12.4997 23.3333V27.3333C12.4997 28.0697 11.9027 28.6667 11.1663 28.6667H9.16634C6.22082 28.6667 3.83301 26.2789 3.83301 23.3333L3.83301 14.5845Z" fill="currentColor" stroke="currentColor" stroke-width="2.66667"/>
</svg>
