<svg width="33" height="32" viewBox="0 0 33 32" fill="none" xmlns="http://www.w3.org/2000/svg">
    <path
        d="M27.4177 2.02937C29.569 1.74849 31.3423 3.52159 31.0613 5.67292C30.6499 8.81816 29.5197 14.1617 26.3259 17.6055C25.3099 18.701 24.0812 19.712 22.8191 20.6114L23.1882 23.1954C23.292 23.9223 23.0482 24.6566 22.5291 25.1758L18.2859 29.418C16.9264 30.7772 14.5983 30.0016 14.3259 28.0987L13.7605 24.1378L13.7664 24.1358C13.4042 23.9609 13.0667 23.7271 12.7742 23.4346L9.65503 20.3165C9.36238 20.0238 9.12883 19.6858 8.95386 19.3233L8.95191 19.3301L4.99195 18.7647C3.08869 18.4926 2.31307 16.1633 3.67261 14.8038L7.9148 10.5616C8.43411 10.0424 9.16831 9.79856 9.89527 9.90241L12.4793 10.2706C13.3784 9.0089 14.389 7.78049 15.4841 6.76472C18.9279 3.57071 24.2724 2.44074 27.4177 2.02937ZM9.30835 24.8487C9.69868 24.4584 10.3318 24.4588 10.7224 24.8487C11.1129 25.2392 11.1129 25.8722 10.7224 26.2628L8.83667 28.1485C8.44612 28.5387 7.81302 28.5389 7.42261 28.1485C7.0328 27.7581 7.03264 27.1248 7.42261 26.7344L9.30835 24.8487ZM20.9744 21.8389C19.3873 22.8293 17.8822 23.6176 16.8152 24.1407C16.4942 24.298 16.1606 24.3983 15.825 24.4503L16.3064 27.8155C16.3455 28.0871 16.6777 28.1978 16.8718 28.004L21.115 23.7608C21.1889 23.6866 21.2235 23.5812 21.2087 23.4776L20.9744 21.8389ZM6.48023 22.0206C6.87064 21.6302 7.50374 21.6304 7.89429 22.0206C8.28478 22.4111 8.2848 23.0441 7.89429 23.4346L4.12378 27.2051C3.73327 27.5957 3.10025 27.5956 2.70972 27.2051C2.31953 26.8146 2.31931 26.1815 2.70972 25.7911L6.48023 22.0206ZM9.61206 11.8819C9.50858 11.8673 9.40389 11.9019 9.32984 11.9757L5.08667 16.2188C4.89276 16.4131 5.00339 16.7454 5.27515 16.7842L8.63941 17.2647C8.69139 16.9291 8.79165 16.5954 8.94898 16.2745C9.47211 15.2074 10.2604 13.7024 11.2507 12.1153L9.61206 11.8819ZM22.1873 7.84772C20.5304 7.84772 19.1873 9.19087 19.1873 10.8477C19.1875 12.5044 20.5306 13.8477 22.1873 13.8477C23.844 13.8477 25.187 12.5044 25.1873 10.8477C25.1873 9.19087 23.8441 7.84772 22.1873 7.84772Z"
        fill="currentColor" />
</svg>