<svg width="20" height="30" viewBox="0 0 20 30" fill="none" xmlns="http://www.w3.org/2000/svg">
<path d="M6.76891 20.2774C6.45524 20.2774 6.20097 20.0231 6.20097 19.7094C6.20097 18.1395 6.33352 16.8882 6.59862 15.9555C6.87319 15.0228 7.27084 14.2748 7.79158 13.7114C8.31231 13.1389 8.94666 12.6171 9.69463 12.1461C10.2911 11.7768 10.8213 11.4027 11.2852 11.0241C11.7586 10.6363 12.1326 10.2207 12.4072 9.77742C12.6818 9.33415 12.819 8.83085 12.819 8.26753C12.819 7.72268 12.6865 7.24247 12.4214 6.8269C12.1563 6.41134 11.7918 6.09274 11.3278 5.8711C10.8734 5.64023 10.3669 5.5248 9.80825 5.5248C9.24964 5.5248 8.72417 5.64946 8.23184 5.8988C7.74897 6.14815 7.35132 6.50368 7.03888 6.96542C6.50253 7.76648 5.79612 8.61384 4.83208 8.61384H2.56708C1.17599 8.61384 0.00124428 7.45488 0.362977 6.11163C0.592653 5.25877 0.943305 4.50445 1.41494 3.84868C2.31439 2.61122 3.50261 1.69697 4.97961 1.10594C6.4566 0.505682 8.08508 0.205551 9.86505 0.205551C11.8154 0.205551 13.5481 0.501064 15.0629 1.09209C16.5873 1.68312 17.785 2.55581 18.656 3.71016C19.5271 4.86451 19.9626 6.27743 19.9626 7.94893C19.9626 9.04787 19.7732 10.0175 19.3945 10.8579C19.0158 11.6983 18.4856 12.4417 17.8039 13.0881C17.1317 13.7253 16.3411 14.3071 15.4322 14.8335C14.7221 15.2398 14.1304 15.6646 13.657 16.1079C13.193 16.5511 12.8427 17.0591 12.606 17.6316C12.3693 18.1949 12.251 18.8876 12.251 19.7094C12.251 20.0231 11.9967 20.2774 11.683 20.2774H6.76891ZM9.33958 29.3644C8.31705 29.3644 7.44127 29.0135 6.71224 28.3117C5.99267 27.6098 5.63763 26.7602 5.6471 25.7629C5.63763 24.784 5.99267 23.9482 6.71224 23.2556C7.44127 22.5538 8.31705 22.2028 9.33958 22.2028C10.3148 22.2028 11.1716 22.5538 11.9101 23.2556C12.6486 23.9482 13.0226 24.784 13.0321 25.7629C13.0226 26.4278 12.8427 27.0326 12.4924 27.5775C12.1516 28.1224 11.7018 28.5564 11.1432 28.8796C10.5941 29.2028 9.99287 29.3644 9.33958 29.3644Z" fill="white" fill-opacity="0.36"/>
</svg>
