<svg width="39" height="32" viewBox="0 0 39 32" fill="none" xmlns="http://www.w3.org/2000/svg" class="rocket-icon">
    <path
        d="M31.2009 2.1618C33.2607 2.01225 34.9166 3.74164 34.6443 5.82586L34.5574 6.44109C34.0826 9.63231 32.903 14.53 29.9089 17.7585L29.6423 18.0387C28.6816 19.0268 27.5557 19.9422 26.4021 20.7643L26.7712 23.3483L26.7869 23.485C26.8436 24.1664 26.5987 24.842 26.1121 25.3288L21.8689 29.571C20.5518 30.8877 18.3254 30.2009 17.9402 28.4264L17.9089 28.2516L17.3435 24.2907L17.3494 24.2887C16.9872 24.1138 16.6497 23.88 16.3572 23.5876L13.238 20.4694C12.9454 20.1767 12.7118 19.8387 12.5369 19.4762L12.5349 19.4831L8.57495 18.9177C6.67169 18.6456 5.89607 16.3163 7.25562 14.9567L11.4978 10.7145C12.0171 10.1953 12.7513 9.9515 13.4783 10.0554L16.0623 10.4235C16.9614 9.16184 17.972 7.93343 19.0671 6.91766L19.3962 6.62469C22.8436 3.65416 27.9537 2.58082 31.0007 2.1823L31.2009 2.1618ZM12.8914 25.0016C13.2817 24.6113 13.9148 24.6117 14.3054 25.0016C14.6959 25.3922 14.6959 26.0252 14.3054 26.4157L12.4197 28.3014C12.0291 28.6916 11.396 28.6919 11.0056 28.3014C10.6158 27.911 10.6156 27.2777 11.0056 26.8874L12.8914 25.0016ZM24.5574 21.9919C23.4018 22.713 22.2905 23.3282 21.3591 23.8102L20.3982 24.2936C20.0772 24.4509 19.7436 24.5513 19.408 24.6032L19.8894 27.9684L19.9168 28.0632C20.0094 28.2632 20.2851 28.3264 20.4548 28.1569L24.698 23.9137C24.7533 23.8582 24.7866 23.7851 24.7937 23.7087L24.7917 23.6305L24.5574 21.9919ZM10.0632 22.1735C10.4536 21.7831 11.0867 21.7833 11.4773 22.1735C11.8678 22.564 11.8678 23.1971 11.4773 23.5876L7.70679 27.3581C7.31628 27.7486 6.68325 27.7486 6.29273 27.3581C5.90253 26.9675 5.90231 26.3344 6.29273 25.944L10.0632 22.1735ZM13.1951 12.0348C13.0916 12.0202 12.9869 12.0549 12.9128 12.1286L8.66968 16.3718C8.47577 16.566 8.5864 16.8983 8.85816 16.9372L12.2224 17.4177C12.2604 17.1724 12.323 16.928 12.4168 16.6891L12.532 16.4274C13.0551 15.3603 13.8434 13.8554 14.8337 12.2682L13.1951 12.0348ZM25.7703 8.00066C24.1136 8.00086 22.7703 9.34393 22.7703 11.0007C22.7705 12.6572 24.1137 14.0005 25.7703 14.0007C27.427 14.0007 28.77 12.6573 28.7703 11.0007C28.7703 9.34381 27.4271 8.00066 25.7703 8.00066Z"
        fill="currentColor" />
</svg>