<svg width="25" height="24" viewBox="0 0 25 24" fill="none" xmlns="http://www.w3.org/2000/svg">
<g clip-path="url(#clip0_181_1708)">
<path d="M3.5 3L7.046 3.003L18.863 14.821L19.7477 13.937C20.0406 13.6442 20.5153 13.6443 20.8081 13.9371L21.1618 14.2908C21.4546 14.5836 21.4547 15.0584 21.1619 15.3513L19.218 17.296L21.5159 19.5947C21.8087 19.8876 21.8086 20.3624 21.5158 20.6552L21.1623 21.0087C20.8694 21.3016 20.3946 21.3016 20.1017 21.0087L17.803 18.71L15.8583 20.6547C15.5654 20.9476 15.0906 20.9476 14.7977 20.6547L13.914 19.771L15.328 18.356L3.503 6.531L3.5 3Z" fill="#1AC9FF"/>
<path d="M8.95312 15.8711H8.95117L10.0225 16.9414L9.13965 17.8262L8.60938 18.3564L10.0244 19.7715L9.6709 20.124L7.19629 17.6494L4.36719 20.4785L4.01367 20.125L6.3125 17.8252L6.84277 17.2949L6.3125 16.7646L4.36816 14.8213L4.72168 14.4678L5.60547 15.3506L6.13574 15.8809L6.66602 15.3506L7.54883 14.4668L8.95312 15.8711ZM20.749 3.75195L20.75 6.21484L17.4473 9.51758L14.9727 7.04199L18.2656 3.75L20.749 3.75195Z" stroke="#1AC9FF" stroke-width="1.5"/>
</g>
<defs>
<clipPath id="clip0_181_1708">
<rect width="24" height="24" fill="white" transform="translate(0.5)"/>
</clipPath>
</defs>
</svg>
